<svg id="Camada_1" data-name="Camada 1" xmlns="http://www.w3.org/2000/svg" viewBox="0 0 863.03 189.62"><defs><style>.cls-1{fill:#262626;}</style></defs><path class="cls-1" d="M362,525.34a49.6,49.6,0,0,1-3.29-6.24,3.83,3.83,0,0,0-4.88-2.05,23.5,23.5,0,0,1-7.08,1.78,19.62,19.62,0,0,1-9.71-2.45,18,18,0,0,1-6.93-7.19,26.67,26.67,0,0,1,0-23,18.57,18.57,0,0,1,6.93-7,19.5,19.5,0,0,1,9.71-2.43,23.46,23.46,0,0,1,7,1.75,3.81,3.81,0,0,0,4.87-2.07A47.37,47.37,0,0,1,362,470.1a51.2,51.2,0,0,1,6.46-8.36,3.88,3.88,0,0,0-1.51-6.23,53.77,53.77,0,0,0-20-3.55c-9.91,0-18.64,2-26.25,6a45.79,45.79,0,0,0-17.95,16.21,46,46,0,0,0,0,47.23,44.69,44.69,0,0,0,17.95,16.21c7.61,3.93,16.34,5.89,26.25,5.89a53.65,53.65,0,0,0,20-3.56,3.86,3.86,0,0,0,1.5-6.22A51,51,0,0,1,362,525.34Z" transform="translate(-80.18 -420.97)"/><path class="cls-1" d="M437.68,457.84a59.54,59.54,0,0,0-51.6,0,48.34,48.34,0,0,0-7.41,4.76,42.68,42.68,0,0,0-10.28,11.46,40.81,40.81,0,0,0-5.18,12.46,48.26,48.26,0,0,0-1.28,11.26A49.18,49.18,0,0,0,363.21,509a42.06,42.06,0,0,0,5.18,12.34,43,43,0,0,0,10.28,11.46,48.29,48.29,0,0,0,7.41,4.75,59.45,59.45,0,0,0,51.6,0,44.67,44.67,0,0,0,17.8-16.21,46.71,46.71,0,0,0,0-47.3A44.69,44.69,0,0,0,437.68,457.84Zm-9.78,51.28a17.73,17.73,0,0,1-6.68,7.26,19.16,19.16,0,0,1-18.75,0,17.66,17.66,0,0,1-6.68-7.26,24.18,24.18,0,0,1-2.53-11.49,23.07,23.07,0,0,1,2.53-11.41,18.2,18.2,0,0,1,32.11,0,23.07,23.07,0,0,1,2.53,11.41A24.18,24.18,0,0,1,427.9,509.12Z" transform="translate(-80.18 -420.97)"/><rect class="cls-1" x="384.83" width="30.99" height="121.02" rx="2.89"/><path class="cls-1" d="M638.46,456.2A38.83,38.83,0,0,0,620.11,452a39.37,39.37,0,0,0-21.93,6.2,38.15,38.15,0,0,0-6.43,5.23,2.85,2.85,0,0,1-4.27-.22,25.66,25.66,0,0,0-5.53-5.09,36.41,36.41,0,0,0-21-6.12A37.18,37.18,0,0,0,542,456.85c-1,.55-1.87,1.15-2.75,1.78a2.88,2.88,0,0,1-4.59-2.31,2.89,2.89,0,0,0-2.89-2.89h-23.9a2.89,2.89,0,0,0-2.89,2.89V539.1a2.89,2.89,0,0,0,2.89,2.89h25.21A2.9,2.9,0,0,0,536,539.1V498.28c0-4.67.67-8.45,2-11.34a14.33,14.33,0,0,1,5.62-6.44,15.45,15.45,0,0,1,8-2.12q6.36,0,9.87,4.32T565,496.49V539.1a2.89,2.89,0,0,0,2.89,2.89h25.2a2.9,2.9,0,0,0,2.9-2.89V498.28a27.91,27.91,0,0,1,1.95-11.34,14.11,14.11,0,0,1,5.47-6.44,15.28,15.28,0,0,1,8.07-2.12,12.07,12.07,0,0,1,9.79,4.32q3.59,4.33,3.58,13.79V539.1a2.9,2.9,0,0,0,2.9,2.89h25.2a2.89,2.89,0,0,0,2.89-2.89V491.43q0-13.69-4.65-22.34A30.32,30.32,0,0,0,638.46,456.2Z" transform="translate(-80.18 -420.97)"/><path class="cls-1" d="M731.1,457.42A51.36,51.36,0,0,0,707.37,452a52.44,52.44,0,0,0-25,5.87,44,44,0,0,0-17.28,16.23,44.85,44.85,0,0,0-6.28,23.73,43.32,43.32,0,0,0,6.44,23.4,44.6,44.6,0,0,0,18.1,16.31q11.66,6,27.48,6a59.5,59.5,0,0,0,21.86-3.67,41.65,41.65,0,0,0,13.42-8.4,2.93,2.93,0,0,0,.17-4.14l-12.41-13.16a2.86,2.86,0,0,0-3.8-.36,31.84,31.84,0,0,1-7.17,4.2,29.66,29.66,0,0,1-11.25,1.88,26.64,26.64,0,0,1-12.07-2.53,17.86,17.86,0,0,1-7.75-7.26l-.11-.2a2.88,2.88,0,0,1,2.59-4.2h57.25A2.87,2.87,0,0,0,754.4,503c0-.42.07-.84.1-1.27.11-1.42.17-2.67.17-3.76q0-14.67-6.45-24.87A43.24,43.24,0,0,0,731.1,457.42Zm-9.22,31.89H693.24a2.91,2.91,0,0,1-2.75-3.85,19.75,19.75,0,0,1,.81-1.94,15.9,15.9,0,0,1,6.45-6.93,19.55,19.55,0,0,1,10-2.45,18.37,18.37,0,0,1,9.62,2.45,17.34,17.34,0,0,1,6.44,6.93,17.14,17.14,0,0,1,.85,1.9A2.9,2.9,0,0,1,721.88,489.31Z" transform="translate(-80.18 -420.97)"/><path class="cls-1" d="M834.09,456.2A40.28,40.28,0,0,0,815.5,452a39.85,39.85,0,0,0-19.9,5,37.71,37.71,0,0,0-3.42,2.21,2.87,2.87,0,0,1-4.57-2.32v-.5a2.89,2.89,0,0,0-2.89-2.89h-23.9a2.89,2.89,0,0,0-2.89,2.89V539.1a2.89,2.89,0,0,0,2.89,2.89H786a2.9,2.9,0,0,0,2.89-2.89V499.42q0-7.5,2.28-12.07a15.11,15.11,0,0,1,6.36-6.77,19,19,0,0,1,9.14-2.2,13.15,13.15,0,0,1,10.35,4.32q3.84,4.33,3.83,13.79V539.1a2.9,2.9,0,0,0,2.89,2.89h25.37a2.9,2.9,0,0,0,2.9-2.89V491.43q0-13.69-4.82-22.34A30.83,30.83,0,0,0,834.09,456.2Z" transform="translate(-80.18 -420.97)"/><path class="cls-1" d="M931.38,461.91Q919.56,452,898,452a82.31,82.31,0,0,0-21,2.77A64.29,64.29,0,0,0,861.42,461a2.93,2.93,0,0,0-1.21,3.82l7.69,15.62a2.86,2.86,0,0,0,4,1.23,43.73,43.73,0,0,1,8.6-3.73,42.33,42.33,0,0,1,13-2.12q9.78,0,14.27,4a12.56,12.56,0,0,1,3.79,6.28,2.93,2.93,0,0,1-2.78,3.75H894.6q-13.53,0-22.26,3.18t-12.88,9.21a24.36,24.36,0,0,0-4.16,14.19,25.47,25.47,0,0,0,3.83,13.7,26.12,26.12,0,0,0,11.25,9.79q7.43,3.58,17.86,3.59,11.58,0,18.68-4.65a20.55,20.55,0,0,0,2.65-2,2.88,2.88,0,0,1,4.77,2.18v.16a2.89,2.89,0,0,0,2.89,2.89h23.08a2.9,2.9,0,0,0,2.9-2.89V492.9Q943.21,471.86,931.38,461.91Zm-19.16,51.14a3.09,3.09,0,0,1-.19,1.09,13.86,13.86,0,0,1-5.77,7.22,17.73,17.73,0,0,1-9.37,2.52q-5.39,0-8.48-2.52a7.94,7.94,0,0,1-3.1-6.44,7.7,7.7,0,0,1,3-6.53q3-2.28,10.52-2.28h10.49a2.89,2.89,0,0,1,2.89,2.89Z" transform="translate(-80.18 -420.97)"/><path class="cls-1" d="M199.5,509.62a12.67,12.67,0,0,0-17.71,4.9,16.13,16.13,0,0,0-1.76,8,16.9,16.9,0,0,0,1.76,8,12.28,12.28,0,0,0,4.65,5,13.32,13.32,0,0,0,13.06,0,12.28,12.28,0,0,0,4.65-5,16.78,16.78,0,0,0,1.76-8,16,16,0,0,0-1.76-8A12.63,12.63,0,0,0,199.5,509.62Z" transform="translate(-80.18 -420.97)"/><path class="cls-1" d="M255,503.64l-26.1-45.21a37.77,37.77,0,0,0-32.7-18.88H144a37.76,37.76,0,0,0-32.7,18.88l-26.1,45.21a37.74,37.74,0,0,0,0,37.76l26.1,45.2A37.74,37.74,0,0,0,144,605.48h52.2a37.75,37.75,0,0,0,32.7-18.88L255,541.4A37.79,37.79,0,0,0,255,503.64ZM161.71,551.9a37.31,37.31,0,0,1-13.94,2.48,39.2,39.2,0,0,1-18.28-4.1A31.15,31.15,0,0,1,117,539a32,32,0,0,1,0-32.89,31.89,31.89,0,0,1,12.5-11.29,38.85,38.85,0,0,1,18.28-4.15,37.6,37.6,0,0,1,13.95,2.47,2.7,2.7,0,0,1,1,4.34,35.65,35.65,0,0,0-4.5,5.83,34.35,34.35,0,0,0-2.32,4.41,2.66,2.66,0,0,1-3.39,1.44,16.42,16.42,0,0,0-4.9-1.22,13.59,13.59,0,0,0-6.76,1.69,12.85,12.85,0,0,0-4.83,4.9,18.58,18.58,0,0,0,0,16,12.46,12.46,0,0,0,4.83,5,13.61,13.61,0,0,0,6.76,1.71,16.36,16.36,0,0,0,4.93-1.24,2.67,2.67,0,0,1,3.4,1.43,33.9,33.9,0,0,0,2.28,4.34,35.49,35.49,0,0,0,4.5,5.81A2.69,2.69,0,0,1,161.71,551.9ZM223.36,539A31.07,31.07,0,0,1,211,550.28a41.41,41.41,0,0,1-35.93,0,33.17,33.17,0,0,1-5.16-3.31A30.19,30.19,0,0,1,159.1,530.4a34.15,34.15,0,0,1-.89-7.83,33.69,33.69,0,0,1,.89-7.84,28.36,28.36,0,0,1,3.61-8.68,29.68,29.68,0,0,1,7.16-8,33.17,33.17,0,0,1,5.16-3.31,41.41,41.41,0,0,1,35.93,0,31.07,31.07,0,0,1,12.4,11.29,32.58,32.58,0,0,1,0,32.94Z" transform="translate(-80.18 -420.97)"/><path class="cls-1" d="M318.2,610.59a21.64,21.64,0,0,1-7.84-1.39,18.51,18.51,0,0,1-6.23-4,18.3,18.3,0,0,1-4.13-6,20.25,20.25,0,0,1,0-15.15,18.35,18.35,0,0,1,4.15-6,18.76,18.76,0,0,1,6.27-4,22.62,22.62,0,0,1,16.09.16,16.38,16.38,0,0,1,6.32,4.6L328.41,583a13.94,13.94,0,0,0-4.53-3.24,13.13,13.13,0,0,0-5.31-1.08,14.31,14.31,0,0,0-5.29.95,12.21,12.21,0,0,0-4.15,2.68,12.64,12.64,0,0,0-2.77,4.1,14.07,14.07,0,0,0,0,10.42,12.43,12.43,0,0,0,2.77,4.1,12.24,12.24,0,0,0,4.15,2.69,14.31,14.31,0,0,0,5.29.94,13.13,13.13,0,0,0,5.31-1.08,13.51,13.51,0,0,0,4.53-3.28l4.42,4.15a16.55,16.55,0,0,1-6.32,4.63A21.19,21.19,0,0,1,318.2,610.59Z" transform="translate(-80.18 -420.97)"/><path class="cls-1" d="M339.4,610.06V573.24h6.84v31h19.25v5.78Z" transform="translate(-80.18 -420.97)"/><path class="cls-1" d="M370.91,610.06V573.24h6.84v36.82Z" transform="translate(-80.18 -420.97)"/><path class="cls-1" d="M394.48,604.28h20.78v5.78H387.64V573.24h26.88V579h-20ZM394,588.55h18.31v5.63H394Z" transform="translate(-80.18 -420.97)"/><path class="cls-1" d="M422.94,610.06V573.24h5.63l23.09,28.41h-2.79V573.24h6.74v36.82H450l-23-28.4h2.78v28.4Z" transform="translate(-80.18 -420.97)"/><path class="cls-1" d="M473,610.06V579H460.81v-5.79h31.25V579h-12.2v31Z" transform="translate(-80.18 -420.97)"/><path class="cls-1" d="M523.1,610.59a27,27,0,0,1-8.23-1.24,18.51,18.51,0,0,1-6.29-3.18l2.37-5.31a18.93,18.93,0,0,0,5.47,2.89,19.85,19.85,0,0,0,6.68,1.16,14.37,14.37,0,0,0,4.68-.63,5.59,5.59,0,0,0,2.63-1.71,3.89,3.89,0,0,0,.84-2.45,3.38,3.38,0,0,0-1.21-2.71,9.05,9.05,0,0,0-3.13-1.63c-1.28-.4-2.7-.77-4.26-1.1s-3.12-.75-4.68-1.24a20.83,20.83,0,0,1-4.29-1.87,8.88,8.88,0,0,1-3.13-3,9,9,0,0,1-1.18-4.84,10,10,0,0,1,1.6-5.5,11.08,11.08,0,0,1,4.9-4,20.12,20.12,0,0,1,8.33-1.5,26.28,26.28,0,0,1,6.58.85,18.8,18.8,0,0,1,5.68,2.42l-2.16,5.31a20,20,0,0,0-5.1-2.18,19.09,19.09,0,0,0-5.05-.71,12.94,12.94,0,0,0-4.58.68,5.56,5.56,0,0,0-2.6,1.81,4.23,4.23,0,0,0-.82,2.5,3.4,3.4,0,0,0,1.19,2.71,8.33,8.33,0,0,0,3.1,1.61c1.28.38,2.71.75,4.29,1.1s3.14.76,4.68,1.24a20,20,0,0,1,4.26,1.84,8.91,8.91,0,0,1,3.13,3,8.72,8.72,0,0,1,1.19,4.76,9.86,9.86,0,0,1-1.61,5.44,11,11,0,0,1-4.92,4A20.3,20.3,0,0,1,523.1,610.59Z" transform="translate(-80.18 -420.97)"/><path class="cls-1" d="M560.55,610.59q-7.51,0-11.81-4.26T544.46,594V573.24h6.83v20.52c0,3.78.82,6.54,2.45,8.26a9.11,9.11,0,0,0,6.92,2.57,9,9,0,0,0,6.89-2.57c1.61-1.72,2.42-4.48,2.42-8.26V573.24h6.74V594q0,8.1-4.29,12.36T560.55,610.59Z" transform="translate(-80.18 -420.97)"/><path class="cls-1" d="M586.33,610.06V573.24h15.15a20.67,20.67,0,0,1,8.39,1.55,12,12,0,0,1,5.39,4.5,12.68,12.68,0,0,1,1.9,7.05,12.48,12.48,0,0,1-1.9,7,12.3,12.3,0,0,1-5.39,4.52,20,20,0,0,1-8.39,1.61H590.17l3-3.16v13.78Zm6.84-13-3-3.37h11q4.51,0,6.81-1.92A7.49,7.49,0,0,0,608,581q-2.29-1.92-6.81-1.92h-11l3-3.37Z" transform="translate(-80.18 -420.97)"/><path class="cls-1" d="M624.52,610.06V573.24h15.15a20.64,20.64,0,0,1,8.39,1.55,12.09,12.09,0,0,1,5.4,4.5,12.76,12.76,0,0,1,1.89,7.05,12.55,12.55,0,0,1-1.89,7,12.39,12.39,0,0,1-5.4,4.52,20,20,0,0,1-8.39,1.61H628.36l3-3.16v13.78Zm6.84-13-3-3.37h11q4.51,0,6.81-1.92a7.49,7.49,0,0,0,0-10.78q-2.29-1.92-6.81-1.92h-11l3-3.37Z" transform="translate(-80.18 -420.97)"/><path class="cls-1" d="M680,610.59a21.64,21.64,0,0,1-7.92-1.42,19.05,19.05,0,0,1-6.34-4,18.23,18.23,0,0,1-4.15-6,19.87,19.87,0,0,1,0-15,18,18,0,0,1,4.15-6,19.34,19.34,0,0,1,6.32-4,22.92,22.92,0,0,1,15.83,0,18.59,18.59,0,0,1,6.29,3.94,18.1,18.1,0,0,1,4.13,6,20.17,20.17,0,0,1,0,15.12,18.31,18.31,0,0,1-10.42,10A22,22,0,0,1,680,610.59Zm0-6a13.57,13.57,0,0,0,5.13-.94,12.16,12.16,0,0,0,6.78-6.79,13.54,13.54,0,0,0,1-5.21,14,14,0,0,0-1-5.21,11.88,11.88,0,0,0-2.71-4.1,12.3,12.3,0,0,0-4.1-2.68,13.58,13.58,0,0,0-5.13-.95,14,14,0,0,0-5.18.95,11.73,11.73,0,0,0-4.13,2.71,12.89,12.89,0,0,0-3.74,9.28,13.26,13.26,0,0,0,1,5.16,13.13,13.13,0,0,0,2.74,4.13,11.87,11.87,0,0,0,4.13,2.71A14,14,0,0,0,680,604.59Z" transform="translate(-80.18 -420.97)"/><path class="cls-1" d="M707,610.06V573.24h15.15a20.67,20.67,0,0,1,8.39,1.55,12.06,12.06,0,0,1,5.39,4.5,12.68,12.68,0,0,1,1.9,7.05,11.8,11.8,0,0,1-7.29,11.41,20.17,20.17,0,0,1-8.39,1.58H710.85l3-3.05v13.78Zm6.84-13-3-3.32h11c3,0,5.29-.64,6.82-1.94a6.76,6.76,0,0,0,2.29-5.42,6.66,6.66,0,0,0-2.29-5.39q-2.29-1.92-6.82-1.92h-11l3-3.37Zm17.25,13-9.31-13.36h7.31l9.37,13.36Z" transform="translate(-80.18 -420.97)"/><path class="cls-1" d="M752.93,610.06V579h-12.2v-5.79H772V579H759.77v31Z" transform="translate(-80.18 -420.97)"/><path class="cls-1" d="M799.07,610.06V579H786.86v-5.79h31.25V579h-12.2v31Z" transform="translate(-80.18 -420.97)"/><path class="cls-1" d="M830.11,604.28h20.77v5.78H823.27V573.24h26.88V579h-20Zm-.53-15.73h18.31v5.63H829.58Z" transform="translate(-80.18 -420.97)"/><path class="cls-1" d="M853.36,610.06l16.57-36.82h6.73l16.63,36.82h-7.21l-14.21-33.19h2.74l-14.26,33.19Zm7.62-8.52,1.9-5.36h19.83l1.84,5.36Z" transform="translate(-80.18 -420.97)"/><path class="cls-1" d="M897.91,610.06V573.24h5.63l16.1,26.88h-2.95l15.84-26.88h5.63l.1,36.82h-6.57V583.39H933l-13.36,22.52h-3.1l-13.68-22.52h1.58v26.67Z" transform="translate(-80.18 -420.97)"/></svg>