<svg id="Camada_1" data-name="Camada 1" xmlns="http://www.w3.org/2000/svg" viewBox="0 0 863.03 204.54"><defs><style>.cls-1{fill:#262626;}</style></defs><path class="cls-1" d="M362,516.17a48.92,48.92,0,0,1-3.29-6.24,3.84,3.84,0,0,0-4.88-2.05,23.21,23.21,0,0,1-7.08,1.78,19.51,19.51,0,0,1-9.71-2.45,18,18,0,0,1-6.93-7.18,26.69,26.69,0,0,1,0-23,18.57,18.57,0,0,1,6.93-7,19.5,19.5,0,0,1,9.71-2.43,23.46,23.46,0,0,1,7,1.75,3.81,3.81,0,0,0,4.87-2.07,47.25,47.25,0,0,1,3.34-6.33,50.85,50.85,0,0,1,6.46-8.37,3.88,3.88,0,0,0-1.51-6.23,53.77,53.77,0,0,0-20-3.55c-9.91,0-18.64,2-26.25,6A45.79,45.79,0,0,0,302.74,465a46,46,0,0,0,0,47.23,44.72,44.72,0,0,0,17.95,16.22c7.61,3.93,16.34,5.88,26.25,5.88a53.85,53.85,0,0,0,20-3.55,3.87,3.87,0,0,0,1.5-6.23A51,51,0,0,1,362,516.17Z" transform="translate(-80.18 -411.8)"/><path class="cls-1" d="M437.68,448.67a59.54,59.54,0,0,0-51.6,0,48.34,48.34,0,0,0-7.41,4.76,42.83,42.83,0,0,0-10.28,11.46,40.81,40.81,0,0,0-5.18,12.46,48.32,48.32,0,0,0-1.28,11.26,49.18,49.18,0,0,0,1.28,11.24,42,42,0,0,0,5.18,12.34,43,43,0,0,0,10.28,11.46,49.11,49.11,0,0,0,7.41,4.76,59.54,59.54,0,0,0,51.6,0,44.69,44.69,0,0,0,17.8-16.22,46.71,46.71,0,0,0,0-47.3A44.69,44.69,0,0,0,437.68,448.67ZM427.9,500a17.73,17.73,0,0,1-6.68,7.26,19.16,19.16,0,0,1-18.75,0,17.66,17.66,0,0,1-6.68-7.26,24.18,24.18,0,0,1-2.53-11.49,23.07,23.07,0,0,1,2.53-11.41,18.2,18.2,0,0,1,32.11,0,23.07,23.07,0,0,1,2.53,11.41A24.18,24.18,0,0,1,427.9,500Z" transform="translate(-80.18 -411.8)"/><rect class="cls-1" x="384.83" width="30.99" height="121.02" rx="2.89"/><path class="cls-1" d="M638.46,447a39,39,0,0,0-18.35-4.24,39.37,39.37,0,0,0-21.93,6.2,38.15,38.15,0,0,0-6.43,5.23,2.85,2.85,0,0,1-4.27-.22,25.92,25.92,0,0,0-5.53-5.09,36.41,36.41,0,0,0-21-6.12,37.09,37.09,0,0,0-18.92,4.9,31.41,31.41,0,0,0-2.75,1.77,2.88,2.88,0,0,1-4.59-2.31,2.89,2.89,0,0,0-2.89-2.89h-23.9a2.89,2.89,0,0,0-2.89,2.89v82.78a2.89,2.89,0,0,0,2.89,2.89h25.21a2.89,2.89,0,0,0,2.89-2.89V489.11c0-4.67.67-8.45,2-11.33a14.3,14.3,0,0,1,5.62-6.45,15.45,15.45,0,0,1,8-2.12q6.36,0,9.87,4.33T565,487.32v42.61a2.89,2.89,0,0,0,2.89,2.89h25.2a2.89,2.89,0,0,0,2.9-2.89V489.11a27.82,27.82,0,0,1,1.95-11.33,14.09,14.09,0,0,1,5.47-6.45,15.28,15.28,0,0,1,8.07-2.12,12.07,12.07,0,0,1,9.79,4.33q3.59,4.32,3.58,13.78v42.61a2.89,2.89,0,0,0,2.9,2.89h25.2a2.89,2.89,0,0,0,2.89-2.89V482.26q0-13.69-4.65-22.34A30.32,30.32,0,0,0,638.46,447Z" transform="translate(-80.18 -411.8)"/><path class="cls-1" d="M731.1,448.26a51.25,51.25,0,0,0-23.73-5.47,52.44,52.44,0,0,0-25,5.87,44,44,0,0,0-17.28,16.23,44.85,44.85,0,0,0-6.28,23.73A43.38,43.38,0,0,0,665.21,512a44.74,44.74,0,0,0,18.1,16.31q11.66,6,27.48,5.95,12.57,0,21.86-3.67a41.48,41.48,0,0,0,13.42-8.4,2.93,2.93,0,0,0,.17-4.14l-12.41-13.16a2.87,2.87,0,0,0-3.8-.36,32.28,32.28,0,0,1-7.17,4.21,29.67,29.67,0,0,1-11.25,1.87,26.64,26.64,0,0,1-12.07-2.53,17.86,17.86,0,0,1-7.75-7.26l-.11-.2a2.88,2.88,0,0,1,2.59-4.2h57.25a2.87,2.87,0,0,0,2.88-2.64c0-.41.07-.84.1-1.27.11-1.42.17-2.67.17-3.75q0-14.69-6.45-24.88A43.15,43.15,0,0,0,731.1,448.26Zm-9.22,31.88H693.24a2.91,2.91,0,0,1-2.75-3.85,19.75,19.75,0,0,1,.81-1.94,15.9,15.9,0,0,1,6.45-6.93,19.55,19.55,0,0,1,10-2.45,18.37,18.37,0,0,1,9.62,2.45,17.34,17.34,0,0,1,6.44,6.93,18,18,0,0,1,.85,1.9A2.9,2.9,0,0,1,721.88,480.14Z" transform="translate(-80.18 -411.8)"/><path class="cls-1" d="M834.09,447a40.4,40.4,0,0,0-18.59-4.24,39.75,39.75,0,0,0-19.9,5,33.84,33.84,0,0,0-3.42,2.21,2.87,2.87,0,0,1-4.57-2.33v-.5a2.89,2.89,0,0,0-2.89-2.89h-23.9a2.89,2.89,0,0,0-2.89,2.89v82.78a2.89,2.89,0,0,0,2.89,2.89H786a2.89,2.89,0,0,0,2.89-2.89V490.25q0-7.5,2.28-12.07a15,15,0,0,1,6.36-6.76,18.9,18.9,0,0,1,9.14-2.21,13.16,13.16,0,0,1,10.35,4.33q3.84,4.32,3.83,13.78v42.61a2.89,2.89,0,0,0,2.89,2.89h25.37a2.89,2.89,0,0,0,2.9-2.89V482.26q0-13.69-4.82-22.34A30.83,30.83,0,0,0,834.09,447Z" transform="translate(-80.18 -411.8)"/><path class="cls-1" d="M931.38,452.74q-11.82-9.94-33.35-9.95a82.31,82.31,0,0,0-21,2.77,64.29,64.29,0,0,0-15.65,6.22,2.93,2.93,0,0,0-1.21,3.82l7.69,15.62a2.86,2.86,0,0,0,4,1.23,43.73,43.73,0,0,1,8.6-3.73,42.33,42.33,0,0,1,13-2.12q9.78,0,14.27,4a12.54,12.54,0,0,1,3.79,6.29,2.92,2.92,0,0,1-2.78,3.74H894.6q-13.53,0-22.26,3.18T859.46,493a24.32,24.32,0,0,0-4.16,14.19,25.46,25.46,0,0,0,3.83,13.69,26.12,26.12,0,0,0,11.25,9.79q7.43,3.59,17.86,3.59,11.58,0,18.68-4.65a20.55,20.55,0,0,0,2.65-2,2.88,2.88,0,0,1,4.77,2.19v.15a2.89,2.89,0,0,0,2.89,2.89h23.08a2.89,2.89,0,0,0,2.9-2.89v-46.2Q943.21,462.68,931.38,452.74Zm-19.16,51.15A3.07,3.07,0,0,1,912,505a13.86,13.86,0,0,1-5.77,7.22,17.64,17.64,0,0,1-9.37,2.53q-5.39,0-8.48-2.53a7.93,7.93,0,0,1-3.1-6.44,7.71,7.71,0,0,1,3-6.53q3-2.28,10.52-2.28h10.49a2.89,2.89,0,0,1,2.89,2.89Z" transform="translate(-80.18 -411.8)"/><path class="cls-1" d="M199.5,509.62a12.67,12.67,0,0,0-17.71,4.9,16.13,16.13,0,0,0-1.76,8,16.9,16.9,0,0,0,1.76,8,12.28,12.28,0,0,0,4.65,5,13.32,13.32,0,0,0,13.06,0,12.28,12.28,0,0,0,4.65-5,16.78,16.78,0,0,0,1.76-8,16,16,0,0,0-1.76-8A12.63,12.63,0,0,0,199.5,509.62Z" transform="translate(-80.18 -411.8)"/><path class="cls-1" d="M255,503.64l-26.1-45.21a37.77,37.77,0,0,0-32.7-18.88H144a37.76,37.76,0,0,0-32.7,18.88l-26.1,45.21a37.74,37.74,0,0,0,0,37.76l26.1,45.2A37.74,37.74,0,0,0,144,605.48h52.2a37.75,37.75,0,0,0,32.7-18.88L255,541.4A37.79,37.79,0,0,0,255,503.64ZM161.71,551.9a37.31,37.31,0,0,1-13.94,2.48,39.2,39.2,0,0,1-18.28-4.1A31.15,31.15,0,0,1,117,539a32,32,0,0,1,0-32.89,31.89,31.89,0,0,1,12.5-11.29,38.85,38.85,0,0,1,18.28-4.15,37.6,37.6,0,0,1,13.95,2.47,2.7,2.7,0,0,1,1,4.34,35.65,35.65,0,0,0-4.5,5.83,34.35,34.35,0,0,0-2.32,4.41,2.66,2.66,0,0,1-3.39,1.44,16.42,16.42,0,0,0-4.9-1.22,13.59,13.59,0,0,0-6.76,1.69,12.85,12.85,0,0,0-4.83,4.9,18.58,18.58,0,0,0,0,16,12.46,12.46,0,0,0,4.83,5,13.61,13.61,0,0,0,6.76,1.71,16.36,16.36,0,0,0,4.93-1.24,2.67,2.67,0,0,1,3.4,1.43,33.9,33.9,0,0,0,2.28,4.34,35.49,35.49,0,0,0,4.5,5.81A2.69,2.69,0,0,1,161.71,551.9ZM223.36,539A31.07,31.07,0,0,1,211,550.28a41.41,41.41,0,0,1-35.93,0,33.17,33.17,0,0,1-5.16-3.31A30.19,30.19,0,0,1,159.1,530.4a34.15,34.15,0,0,1-.89-7.83,33.69,33.69,0,0,1,.89-7.84,28.36,28.36,0,0,1,3.61-8.68,29.68,29.68,0,0,1,7.16-8,33.17,33.17,0,0,1,5.16-3.31,41.41,41.41,0,0,1,35.93,0,31.07,31.07,0,0,1,12.4,11.29,32.58,32.58,0,0,1,0,32.94Z" transform="translate(-80.18 -411.8)"/><path class="cls-1" d="M329.45,596.65l-29.19-11.33v-6.84l29.19-11.33v6.58l-26.65,10v-3.68l26.65,10Z" transform="translate(-80.18 -411.8)"/><path class="cls-1" d="M353.13,604.5a17.78,17.78,0,0,1-8.77-2.15,15.59,15.59,0,0,1-6.11-6.05,20,20,0,0,1,0-18.26,15.6,15.6,0,0,1,6.11-6.08,17.89,17.89,0,0,1,8.77-2.15,15.32,15.32,0,0,1,7.6,1.87,13.19,13.19,0,0,1,5.32,5.69,21.56,21.56,0,0,1,2,9.79,22,22,0,0,1-1.9,9.75,12.93,12.93,0,0,1-5.22,5.73A15.66,15.66,0,0,1,353.13,604.5Zm.95-6.71a10,10,0,0,0,5.1-1.3,9.67,9.67,0,0,0,3.61-3.73,11.38,11.38,0,0,0,1.36-5.6,11.18,11.18,0,0,0-1.36-5.61,9.86,9.86,0,0,0-3.61-3.67,10.65,10.65,0,0,0-10.2,0,9.79,9.79,0,0,0-3.61,3.67,11.18,11.18,0,0,0-1.36,5.61,11.38,11.38,0,0,0,1.36,5.6,9.6,9.6,0,0,0,3.61,3.73A10,10,0,0,0,354.08,597.79Zm10.32,6.27v-8l.19-9-.63-9v-21h8v47Z" transform="translate(-80.18 -411.8)"/><path class="cls-1" d="M398.15,604.5a20.72,20.72,0,0,1-9.85-2.24,16.33,16.33,0,0,1-6.52-6.15,17.19,17.19,0,0,1-2.31-9,17.56,17.56,0,0,1,2.25-9,16.18,16.18,0,0,1,6.2-6.14,17.92,17.92,0,0,1,9-2.25,17.62,17.62,0,0,1,8.8,2.18,15.87,15.87,0,0,1,6.08,6.11,18.62,18.62,0,0,1,2.22,9.31c0,.3,0,.66,0,1.11s-.06.83-.1,1.17H385.74v-5.26h24l-3.16,1.65a10,10,0,0,0-1.17-5.1A8.94,8.94,0,0,0,402,577.5a10.07,10.07,0,0,0-5.07-1.23,10.39,10.39,0,0,0-5.09,1.23A8.4,8.4,0,0,0,388.4,581a11,11,0,0,0-1.21,5.26v1.27a10.59,10.59,0,0,0,1.36,5.38,9.34,9.34,0,0,0,3.9,3.64,12.78,12.78,0,0,0,5.89,1.3,13.27,13.27,0,0,0,5.12-1,12.29,12.29,0,0,0,4.06-2.79l4.3,4.94a15.17,15.17,0,0,1-5.79,4.05A20.9,20.9,0,0,1,398.15,604.5Z" transform="translate(-80.18 -411.8)"/><path class="cls-1" d="M430.62,604.06l-14.49-33.81h8.16l12.54,29.82h-4.05l12.91-29.82h7.6l-14.5,33.81Z" transform="translate(-80.18 -411.8)"/><path class="cls-1" d="M474.12,604.5a20.65,20.65,0,0,1-9.84-2.24,16.36,16.36,0,0,1-6.53-6.15,17.19,17.19,0,0,1-2.31-9,17.56,17.56,0,0,1,2.25-9,16.28,16.28,0,0,1,6.21-6.14,17.89,17.89,0,0,1,9-2.25,17.64,17.64,0,0,1,8.8,2.18,15.93,15.93,0,0,1,6.08,6.11,18.72,18.72,0,0,1,2.21,9.31c0,.3,0,.66,0,1.11s-.05.83-.09,1.17H461.71v-5.26h24l-3.17,1.65a10,10,0,0,0-1.17-5.1A8.8,8.8,0,0,0,478,577.5a10,10,0,0,0-5.06-1.23,10.46,10.46,0,0,0-5.1,1.23,8.4,8.4,0,0,0-3.45,3.51,11.15,11.15,0,0,0-1.2,5.26v1.27a10.49,10.49,0,0,0,1.36,5.38,9.32,9.32,0,0,0,3.89,3.64,12.81,12.81,0,0,0,5.89,1.3,13.29,13.29,0,0,0,5.13-1,12.15,12.15,0,0,0,4.05-2.79l4.31,4.94a15.28,15.28,0,0,1-5.8,4.05A20.86,20.86,0,0,1,474.12,604.5Z" transform="translate(-80.18 -411.8)"/><path class="cls-1" d="M497.67,604.06v-47h7.86v47Z" transform="translate(-80.18 -411.8)"/><path class="cls-1" d="M531.17,604.5a18.92,18.92,0,0,1-9.22-2.24,16.73,16.73,0,0,1-6.42-6.18,18.3,18.3,0,0,1,0-17.91,16.83,16.83,0,0,1,6.39-6.11,18.74,18.74,0,0,1,9.25-2.25,19,19,0,0,1,9.33,2.25,16.51,16.51,0,0,1,6.4,6.11,18.57,18.57,0,0,1,0,17.94,16.48,16.48,0,0,1-6.43,6.15A19.15,19.15,0,0,1,531.17,604.5Zm0-6.71a10.26,10.26,0,0,0,5.19-1.3,9.14,9.14,0,0,0,3.58-3.73,11.8,11.8,0,0,0,1.29-5.6,11.59,11.59,0,0,0-1.29-5.61,9.3,9.3,0,0,0-3.58-3.67,10.77,10.77,0,0,0-10.26,0,9.5,9.5,0,0,0-3.61,3.67,11.38,11.38,0,0,0-1.33,5.61,11.59,11.59,0,0,0,1.33,5.6,9.34,9.34,0,0,0,3.61,3.73A10,10,0,0,0,531.17,597.79Z" transform="translate(-80.18 -411.8)"/><path class="cls-1" d="M556.87,616.34V570.25h7.54v8l-.32,9,.63,9v20.13Zm18.68-11.84a15.29,15.29,0,0,1-7.54-1.86,13.16,13.16,0,0,1-5.31-5.73,21.45,21.45,0,0,1-2-9.75,22.45,22.45,0,0,1,1.87-9.79,12.52,12.52,0,0,1,5.29-5.69,15.66,15.66,0,0,1,7.66-1.87,17.84,17.84,0,0,1,8.8,2.15,15.86,15.86,0,0,1,6.11,6.08,19.65,19.65,0,0,1,0,18.26,15.85,15.85,0,0,1-6.11,6.05A17.73,17.73,0,0,1,575.55,604.5Zm-.95-6.71a9.92,9.92,0,0,0,5.16-1.33,9.67,9.67,0,0,0,3.58-3.73,12.41,12.41,0,0,0,0-11.18,9.57,9.57,0,0,0-3.58-3.67,10.71,10.71,0,0,0-10.23,0,9.5,9.5,0,0,0-3.61,3.67,12.5,12.5,0,0,0,0,11.18,9.6,9.6,0,0,0,3.61,3.73A9.84,9.84,0,0,0,574.6,597.79Z" transform="translate(-80.18 -411.8)"/><path class="cls-1" d="M616.13,604.5a20.68,20.68,0,0,1-9.84-2.24,16.33,16.33,0,0,1-6.52-6.15,17.1,17.1,0,0,1-2.31-9,17.56,17.56,0,0,1,2.24-9,16.28,16.28,0,0,1,6.21-6.14,17.89,17.89,0,0,1,9-2.25,17.62,17.62,0,0,1,8.8,2.18,15.93,15.93,0,0,1,6.08,6.11,18.61,18.61,0,0,1,2.21,9.31c0,.3,0,.66,0,1.11s0,.83-.09,1.17H603.72v-5.26h24l-3.17,1.65a9.9,9.9,0,0,0-1.17-5.1A8.8,8.8,0,0,0,620,577.5a10,10,0,0,0-5.06-1.23,10.46,10.46,0,0,0-5.1,1.23,8.4,8.4,0,0,0-3.45,3.51,11.15,11.15,0,0,0-1.2,5.26v1.27a10.49,10.49,0,0,0,1.36,5.38,9.38,9.38,0,0,0,3.89,3.64,12.81,12.81,0,0,0,5.89,1.3,13.29,13.29,0,0,0,5.13-1,12.15,12.15,0,0,0,4-2.79l4.31,4.94a15.13,15.13,0,0,1-5.8,4.05A20.86,20.86,0,0,1,616.13,604.5Z" transform="translate(-80.18 -411.8)"/><path class="cls-1" d="M639.68,604.06V570.25h7.54v9.31l-.89-2.72a10.51,10.51,0,0,1,4.75-5.23,16.56,16.56,0,0,1,8-1.8v7.53c-.29,0-.59-.07-.89-.09l-.82,0a9.9,9.9,0,0,0-7.22,2.59q-2.66,2.6-2.65,7.92v16.33Z" transform="translate(-80.18 -411.8)"/><path class="cls-1" d="M676.72,604.5a29.86,29.86,0,0,1-8.17-1.1,22.14,22.14,0,0,1-6.2-2.69l3-6a20.8,20.8,0,0,0,5.44,2.37,22.61,22.61,0,0,0,6.4.92,11,11,0,0,0,5.35-1,3,3,0,0,0,1.68-2.69,2.35,2.35,0,0,0-1.14-2.12,8.68,8.68,0,0,0-3-1.11c-1.22-.25-2.58-.48-4.08-.7s-3-.49-4.5-.85a15.67,15.67,0,0,1-4.08-1.58,8.48,8.48,0,0,1-3-2.82,8.67,8.67,0,0,1-1.14-4.75,8.76,8.76,0,0,1,1.84-5.54,11.86,11.86,0,0,1,5.16-3.7,21.1,21.1,0,0,1,7.88-1.33,31,31,0,0,1,6.87.79,20.46,20.46,0,0,1,5.86,2.18l-3.1,6a16.18,16.18,0,0,0-4.82-1.93,22.71,22.71,0,0,0-4.87-.54,10.77,10.77,0,0,0-5.32,1,3.09,3.09,0,0,0-1.77,2.69,2.54,2.54,0,0,0,1.14,2.28,8.89,8.89,0,0,0,3,1.18c1.23.27,2.59.52,4.09.76s3,.52,4.46.88a17.83,17.83,0,0,1,4.08,1.52,7.89,7.89,0,0,1,3,2.75,9.49,9.49,0,0,1-.73,10.17,12.15,12.15,0,0,1-5.25,3.61A22.9,22.9,0,0,1,676.72,604.5Z" transform="translate(-80.18 -411.8)"/><path class="cls-1" d="M711.73,576.84V570.5h22.54v6.34ZM729,604.5q-5.58,0-8.61-2.88c-2-1.92-3-4.73-3-8.45V562.78h7.85v30.14a5.2,5.2,0,0,0,1.26,3.73A4.67,4.67,0,0,0,730,598a6.57,6.57,0,0,0,4.3-1.39l2.28,5.63a9.94,9.94,0,0,1-3.48,1.71A15.1,15.1,0,0,1,729,604.5Z" transform="translate(-80.18 -411.8)"/><path class="cls-1" d="M759,604.5a20.72,20.72,0,0,1-9.85-2.24,16.33,16.33,0,0,1-6.52-6.15,17.19,17.19,0,0,1-2.31-9,17.56,17.56,0,0,1,2.25-9,16.18,16.18,0,0,1,6.2-6.14,17.94,17.94,0,0,1,9-2.25,17.59,17.59,0,0,1,8.8,2.18,15.87,15.87,0,0,1,6.08,6.11,18.62,18.62,0,0,1,2.22,9.31c0,.3,0,.66,0,1.11s-.06.83-.1,1.17H746.56v-5.26h24l-3.16,1.65a10,10,0,0,0-1.17-5.1,8.94,8.94,0,0,0-3.39-3.48,10.07,10.07,0,0,0-5.07-1.23,10.39,10.39,0,0,0-5.09,1.23,8.4,8.4,0,0,0-3.45,3.51,11,11,0,0,0-1.21,5.26v1.27a10.59,10.59,0,0,0,1.36,5.38,9.34,9.34,0,0,0,3.9,3.64,12.81,12.81,0,0,0,5.89,1.3,13.29,13.29,0,0,0,5.13-1,12.35,12.35,0,0,0,4.05-2.79l4.3,4.94a15.17,15.17,0,0,1-5.79,4.05A20.9,20.9,0,0,1,759,604.5Z" transform="translate(-80.18 -411.8)"/><path class="cls-1" d="M792.65,604.5a16,16,0,0,1-6.65-1.29,10.28,10.28,0,0,1-4.4-3.61,9.19,9.19,0,0,1-1.55-5.23,9.73,9.73,0,0,1,1.36-5.12,9.18,9.18,0,0,1,4.46-3.61,21.2,21.2,0,0,1,8.24-1.33h9.81v5.25h-9.25c-2.65,0-4.46.44-5.41,1.3a4.22,4.22,0,0,0-1.42,3.26,4,4,0,0,0,1.71,3.36,7.85,7.85,0,0,0,4.74,1.26,10.25,10.25,0,0,0,5.23-1.33,7.83,7.83,0,0,0,3.39-3.92l1.26,4.75a8.85,8.85,0,0,1-4,4.62A15,15,0,0,1,792.65,604.5Zm10.64-.44v-6.9l-.38-1.39v-12a7,7,0,0,0-2.12-5.41q-2.13-1.93-6.43-1.93a17.69,17.69,0,0,0-5.51.88,14.58,14.58,0,0,0-4.68,2.47l-3.11-5.76a20.1,20.1,0,0,1,6.52-3.17,28.29,28.29,0,0,1,7.79-1.07q7.41,0,11.4,3.54t4,10.89v19.82Z" transform="translate(-80.18 -411.8)"/><path class="cls-1" d="M863.5,569.81a15.77,15.77,0,0,1,7.18,1.58,11.29,11.29,0,0,1,4.91,4.88,17.67,17.67,0,0,1,1.77,8.42v19.37h-7.85V585.7c0-3-.66-5.23-2-6.71a7.23,7.23,0,0,0-5.67-2.22,9.09,9.09,0,0,0-4.59,1.14,7.7,7.7,0,0,0-3.1,3.39,12.61,12.61,0,0,0-1.11,5.6v17.16H845.2V585.7c0-3-.67-5.23-2-6.71a7.21,7.21,0,0,0-5.66-2.22,9.09,9.09,0,0,0-4.59,1.14,7.72,7.72,0,0,0-3.11,3.39,12.76,12.76,0,0,0-1.1,5.6v17.16h-7.85V570.25h7.53v9L827,576.58a11.92,11.92,0,0,1,5-5,15.45,15.45,0,0,1,7.5-1.77,14.39,14.39,0,0,1,8.23,2.34,11.4,11.4,0,0,1,4.62,7.22l-3-1.14a13.08,13.08,0,0,1,5.39-6.08A16.41,16.41,0,0,1,863.5,569.81Z" transform="translate(-80.18 -411.8)"/><path class="cls-1" d="M880.34,610.39l20.89-59.64h7.16l-20.9,59.64Z" transform="translate(-80.18 -411.8)"/><path class="cls-1" d="M909.84,596.65v-6.58l26.78-10v3.68l-26.78-10v-6.58L939,578.48v6.84Z" transform="translate(-80.18 -411.8)"/></svg>