<svg id="Camada_1" data-name="Camada 1" xmlns="http://www.w3.org/2000/svg" viewBox="0 0 860.71 165.93"><defs><style>.cls-1{fill:#262626;}.cls-2{fill:#ff9c12;}</style></defs><path class="cls-1" d="M359.69,551.54a48.73,48.73,0,0,1-3.28-6.23,3.83,3.83,0,0,0-4.88-2,23.5,23.5,0,0,1-7.08,1.78,19.56,19.56,0,0,1-9.71-2.45,17.94,17.94,0,0,1-6.93-7.19,26.67,26.67,0,0,1,0-23,18.5,18.5,0,0,1,6.93-7,19.44,19.44,0,0,1,9.71-2.43,23.41,23.41,0,0,1,7,1.75,3.83,3.83,0,0,0,4.88-2.07,48.49,48.49,0,0,1,3.33-6.34,51.32,51.32,0,0,1,6.46-8.36,3.87,3.87,0,0,0-1.5-6.23,53.85,53.85,0,0,0-20-3.55q-14.86,0-26.26,5.95a45.86,45.86,0,0,0-17.94,16.22,46,46,0,0,0,0,47.23,44.73,44.73,0,0,0,17.94,16.21q11.42,5.9,26.26,5.88a53.65,53.65,0,0,0,20-3.55,3.87,3.87,0,0,0,1.5-6.23A50.2,50.2,0,0,1,359.69,551.54Z" transform="translate(-80.18 -439.55)"/><path class="cls-1" d="M435.37,484.05a55.2,55.2,0,0,0-25.85-5.88q-14.49,0-25.75,5.88a49.06,49.06,0,0,0-7.41,4.75,42.91,42.91,0,0,0-10.29,11.47,41.06,41.06,0,0,0-5.18,12.46A48.27,48.27,0,0,0,359.62,524a49.75,49.75,0,0,0,1.27,11.24A43.27,43.27,0,0,0,376.36,559a49.06,49.06,0,0,0,7.41,4.75q11.25,5.9,25.75,5.88a55.2,55.2,0,0,0,25.85-5.88,44.57,44.57,0,0,0,17.79-16.21,46.65,46.65,0,0,0,0-47.3A44.52,44.52,0,0,0,435.37,484.05Zm-9.78,51.28a17.68,17.68,0,0,1-6.69,7.26,19.14,19.14,0,0,1-18.74,0,17.6,17.6,0,0,1-6.68-7.26A24.09,24.09,0,0,1,391,523.84a23,23,0,0,1,2.53-11.41,18.2,18.2,0,0,1,32.11,0,23.08,23.08,0,0,1,2.52,11.41A24.21,24.21,0,0,1,425.59,535.33Z" transform="translate(-80.18 -439.55)"/><rect class="cls-1" x="382.52" y="7.63" width="30.99" height="121.02" rx="2.89"/><path class="cls-1" d="M636.15,482.41a38.83,38.83,0,0,0-18.35-4.24,39.32,39.32,0,0,0-21.94,6.2,38,38,0,0,0-6.42,5.23,2.86,2.86,0,0,1-4.28-.22,25.92,25.92,0,0,0-5.52-5.1,36.53,36.53,0,0,0-21-6.11,37.18,37.18,0,0,0-18.92,4.89,31.51,31.51,0,0,0-2.75,1.78,2.88,2.88,0,0,1-4.59-2.31,2.89,2.89,0,0,0-2.89-2.89h-23.9a2.89,2.89,0,0,0-2.9,2.89v82.78a2.9,2.9,0,0,0,2.9,2.89h25.2a2.89,2.89,0,0,0,2.89-2.89V524.49c0-4.68.68-8.45,2-11.34a14.3,14.3,0,0,1,5.63-6.44,15.42,15.42,0,0,1,8-2.12q6.36,0,9.87,4.32t3.5,13.78v42.62a2.9,2.9,0,0,0,2.9,2.89h25.2a2.89,2.89,0,0,0,2.89-2.89V524.49a27.69,27.69,0,0,1,2-11.34,14,14,0,0,1,5.46-6.44,15.34,15.34,0,0,1,8.08-2.12,12,12,0,0,1,9.78,4.32q3.59,4.32,3.59,13.78v42.62a2.89,2.89,0,0,0,2.89,2.89h25.21a2.9,2.9,0,0,0,2.89-2.89V517.64q0-13.71-4.65-22.35A30.35,30.35,0,0,0,636.15,482.41Z" transform="translate(-80.18 -439.55)"/><path class="cls-1" d="M728.79,483.63a51.43,51.43,0,0,0-23.74-5.46A52.4,52.4,0,0,0,680,484a44,44,0,0,0-17.29,16.23A44.92,44.92,0,0,0,656.45,524a43.33,43.33,0,0,0,6.45,23.4A44.61,44.61,0,0,0,681,563.71q11.65,6,27.48,6A59.54,59.54,0,0,0,730.34,566a41.5,41.5,0,0,0,13.42-8.41,2.92,2.92,0,0,0,.16-4.14L731.51,540.3a2.85,2.85,0,0,0-3.79-.36,31.84,31.84,0,0,1-7.17,4.2A29.73,29.73,0,0,1,709.3,546a26.64,26.64,0,0,1-12.07-2.53,17.8,17.8,0,0,1-7.75-7.26,2,2,0,0,1-.11-.2,2.88,2.88,0,0,1,2.58-4.2h57.26a2.88,2.88,0,0,0,2.88-2.64c0-.42.07-.84.1-1.28.11-1.41.16-2.66.16-3.75q0-14.67-6.44-24.87A43.31,43.31,0,0,0,728.79,483.63Zm-9.22,31.89H690.92a2.9,2.9,0,0,1-2.74-3.85,16.56,16.56,0,0,1,7.25-8.87,19.47,19.47,0,0,1,10-2.45A18.23,18.23,0,0,1,715,502.8a17.74,17.74,0,0,1,7.3,8.83A2.9,2.9,0,0,1,719.57,515.52Z" transform="translate(-80.18 -439.55)"/><path class="cls-1" d="M831.78,482.41a40.3,40.3,0,0,0-18.59-4.24,39.8,39.8,0,0,0-19.9,5,35.67,35.67,0,0,0-3.42,2.21A2.87,2.87,0,0,1,785.3,483v-.5a2.89,2.89,0,0,0-2.89-2.89h-23.9a2.89,2.89,0,0,0-2.89,2.89v82.78a2.89,2.89,0,0,0,2.89,2.89h25.2a2.89,2.89,0,0,0,2.89-2.89V525.63q0-7.5,2.29-12.07a15.11,15.11,0,0,1,6.36-6.77,18.85,18.85,0,0,1,9.13-2.2,13.16,13.16,0,0,1,10.36,4.32q3.82,4.32,3.83,13.78v42.62a2.89,2.89,0,0,0,2.89,2.89h25.37a2.89,2.89,0,0,0,2.89-2.89V517.64q0-13.71-4.81-22.35A30.92,30.92,0,0,0,831.78,482.41Z" transform="translate(-80.18 -439.55)"/><path class="cls-1" d="M929.07,488.12q-11.84-9.94-33.36-9.95a81.79,81.79,0,0,0-21,2.77,64.29,64.29,0,0,0-15.65,6.22A2.9,2.9,0,0,0,857.9,491l7.69,15.63a2.85,2.85,0,0,0,4,1.23,44,44,0,0,1,8.6-3.73,42.44,42.44,0,0,1,13-2.12q9.78,0,14.27,4a12.7,12.7,0,0,1,3.79,6.28,2.93,2.93,0,0,1-2.78,3.75H892.29q-13.54,0-22.26,3.18t-12.89,9.21A24.44,24.44,0,0,0,853,542.59a25.5,25.5,0,0,0,3.84,13.7,26.12,26.12,0,0,0,11.25,9.79q7.42,3.58,17.86,3.59,11.58,0,18.67-4.65a21.59,21.59,0,0,0,2.66-2,2.87,2.87,0,0,1,4.76,2.18v.16a2.9,2.9,0,0,0,2.9,2.89H938a2.89,2.89,0,0,0,2.89-2.89v-46.2Q940.89,498.06,929.07,488.12ZM909.9,539.26a3.09,3.09,0,0,1-.19,1.09,13.84,13.84,0,0,1-5.76,7.22,17.74,17.74,0,0,1-9.38,2.52q-5.39,0-8.48-2.52a8,8,0,0,1-3.1-6.45,7.7,7.7,0,0,1,3-6.52q3-2.28,10.52-2.28H907a2.89,2.89,0,0,1,2.89,2.89Z" transform="translate(-80.18 -439.55)"/><path class="cls-2" d="M199.5,509.62a12.67,12.67,0,0,0-17.71,4.9,16.13,16.13,0,0,0-1.76,8,16.9,16.9,0,0,0,1.76,8,12.28,12.28,0,0,0,4.65,5,13.32,13.32,0,0,0,13.06,0,12.28,12.28,0,0,0,4.65-5,16.78,16.78,0,0,0,1.76-8,16,16,0,0,0-1.76-8A12.63,12.63,0,0,0,199.5,509.62Z" transform="translate(-80.18 -439.55)"/><path class="cls-2" d="M255,503.64l-26.1-45.21a37.77,37.77,0,0,0-32.7-18.88H144a37.76,37.76,0,0,0-32.7,18.88l-26.1,45.21a37.74,37.74,0,0,0,0,37.76l26.1,45.2A37.74,37.74,0,0,0,144,605.48h52.2a37.75,37.75,0,0,0,32.7-18.88L255,541.4A37.79,37.79,0,0,0,255,503.64ZM161.71,551.9a37.31,37.31,0,0,1-13.94,2.48,39.2,39.2,0,0,1-18.28-4.1A31.15,31.15,0,0,1,117,539a32,32,0,0,1,0-32.89,31.89,31.89,0,0,1,12.5-11.29,38.85,38.85,0,0,1,18.28-4.15,37.6,37.6,0,0,1,13.95,2.47,2.7,2.7,0,0,1,1,4.34,35.65,35.65,0,0,0-4.5,5.83,34.35,34.35,0,0,0-2.32,4.41,2.66,2.66,0,0,1-3.39,1.44,16.42,16.42,0,0,0-4.9-1.22,13.59,13.59,0,0,0-6.76,1.69,12.85,12.85,0,0,0-4.83,4.9,18.58,18.58,0,0,0,0,16,12.46,12.46,0,0,0,4.83,5,13.61,13.61,0,0,0,6.76,1.71,16.36,16.36,0,0,0,4.93-1.24,2.67,2.67,0,0,1,3.4,1.43,33.9,33.9,0,0,0,2.28,4.34,35.49,35.49,0,0,0,4.5,5.81A2.69,2.69,0,0,1,161.71,551.9ZM223.36,539A31.07,31.07,0,0,1,211,550.28a41.41,41.41,0,0,1-35.93,0,33.17,33.17,0,0,1-5.16-3.31A30.19,30.19,0,0,1,159.1,530.4a34.15,34.15,0,0,1-.89-7.83,33.69,33.69,0,0,1,.89-7.84,28.36,28.36,0,0,1,3.61-8.68,29.68,29.68,0,0,1,7.16-8,33.17,33.17,0,0,1,5.16-3.31,41.41,41.41,0,0,1,35.93,0,31.07,31.07,0,0,1,12.4,11.29,32.58,32.58,0,0,1,0,32.94Z" transform="translate(-80.18 -439.55)"/></svg>