<svg id="Camada_1" data-name="Camada 1" xmlns="http://www.w3.org/2000/svg" viewBox="0 0 962 887.21"><defs><style>.cls-1{fill:#ff9c12;}</style></defs><path class="cls-1" d="M657,431Q641.46,422,622,422c-13,0-24.51,3-34.86,9a67.51,67.51,0,0,0-24.88,26.19c-6.33,11.27-9.41,25.44-9.41,42.49,0,16.59,3.08,30.84,9.41,42.77s14.54,21,24.88,27a71.27,71.27,0,0,0,69.8,0c10.34-6.06,18.64-15.1,24.88-27s9.41-26.18,9.41-42.77c0-17.05-3.07-31.22-9.41-42.49A67.44,67.44,0,0,0,657,431Z" transform="translate(-19 -56.39)"/><path class="cls-1" d="M954,399.05,814.4,157.34A201.9,201.9,0,0,0,639.55,56.39H360.45a201.9,201.9,0,0,0-174.85,101L46.05,399.05a201.88,201.88,0,0,0,0,201.9L185.6,842.66a201.9,201.9,0,0,0,174.85,101h279.1a201.9,201.9,0,0,0,174.85-101L954,601A201.88,201.88,0,0,0,954,399.05Zm-499,258.07q-33.15,13.2-74.54,13.22-55.35,0-97.75-21.9-42.64-21.8-66.82-60.38t-24.32-87.78q0-49.75,24.32-88.06t66.82-60.38q42.48-22.23,97.75-22.18,41.36,0,74.56,13.22c9.45,3.77,12.62,15.83,5.6,23.18a191.54,191.54,0,0,0-24.07,31.16,179.35,179.35,0,0,0-12.4,23.6,14.26,14.26,0,0,1-18.16,7.7c-8.37-3.18-19-6.52-26.19-6.52a72.64,72.64,0,0,0-36.15,9,69,69,0,0,0-25.81,26.19c-6.43,11.27-9.69,25.72-9.69,43,0,16.68,3.26,30.84,9.69,42.49,6.52,11.84,15.09,20.69,25.81,26.75a72.7,72.7,0,0,0,36.15,9.13c7.26,0,17.95-3.41,26.36-6.62a14.26,14.26,0,0,1,18.17,7.63,184.44,184.44,0,0,0,12.22,23.22,189.65,189.65,0,0,0,24,31C467.57,641.28,464.4,653.36,454.94,657.12Zm329.6-69.06q-24,38.58-66.25,60.38T622,670.34q-54,0-95.89-21.9a180.11,180.11,0,0,1-27.58-17.7,159.62,159.62,0,0,1-38.3-42.68A156.85,156.85,0,0,1,441,542.12a183.61,183.61,0,0,1-4.75-41.84A179.47,179.47,0,0,1,441,458.35a152.8,152.8,0,0,1,19.29-46.41,159.62,159.62,0,0,1,38.3-42.68,180.11,180.11,0,0,1,27.58-17.7q41.93-21.94,95.89-21.9t96.26,21.9q42.21,21.79,66.25,60.38t24,88.34Q808.49,549.48,784.54,588.06Z" transform="translate(-19 -56.39)"/></svg>