<svg id="Camada_1" data-name="Camada 1" xmlns="http://www.w3.org/2000/svg" viewBox="0 0 863.03 201.92"><defs><style>.cls-1{fill:#262626;}</style></defs><path class="cls-1" d="M362,516.17a48.92,48.92,0,0,1-3.29-6.24,3.84,3.84,0,0,0-4.88-2.05,23.21,23.21,0,0,1-7.08,1.78,19.51,19.51,0,0,1-9.71-2.45,18,18,0,0,1-6.93-7.18,26.69,26.69,0,0,1,0-23,18.57,18.57,0,0,1,6.93-7,19.5,19.5,0,0,1,9.71-2.43,23.46,23.46,0,0,1,7,1.75,3.81,3.81,0,0,0,4.87-2.07,47.25,47.25,0,0,1,3.34-6.33,50.85,50.85,0,0,1,6.46-8.37,3.88,3.88,0,0,0-1.51-6.23,53.77,53.77,0,0,0-20-3.55c-9.91,0-18.64,2-26.25,6A45.79,45.79,0,0,0,302.74,465a46,46,0,0,0,0,47.23,44.72,44.72,0,0,0,17.95,16.22c7.61,3.93,16.34,5.88,26.25,5.88a53.85,53.85,0,0,0,20-3.55,3.87,3.87,0,0,0,1.5-6.23A51,51,0,0,1,362,516.17Z" transform="translate(-80.18 -411.8)"/><path class="cls-1" d="M437.68,448.67a59.54,59.54,0,0,0-51.6,0,48.34,48.34,0,0,0-7.41,4.76,42.83,42.83,0,0,0-10.28,11.46,40.81,40.81,0,0,0-5.18,12.46,48.32,48.32,0,0,0-1.28,11.26,49.18,49.18,0,0,0,1.28,11.24,42,42,0,0,0,5.18,12.34,43,43,0,0,0,10.28,11.46,49.11,49.11,0,0,0,7.41,4.76,59.54,59.54,0,0,0,51.6,0,44.69,44.69,0,0,0,17.8-16.22,46.71,46.71,0,0,0,0-47.3A44.69,44.69,0,0,0,437.68,448.67ZM427.9,500a17.73,17.73,0,0,1-6.68,7.26,19.16,19.16,0,0,1-18.75,0,17.66,17.66,0,0,1-6.68-7.26,24.18,24.18,0,0,1-2.53-11.49,23.07,23.07,0,0,1,2.53-11.41,18.2,18.2,0,0,1,32.11,0,23.07,23.07,0,0,1,2.53,11.41A24.18,24.18,0,0,1,427.9,500Z" transform="translate(-80.18 -411.8)"/><rect class="cls-1" x="384.83" width="30.99" height="121.02" rx="2.89"/><path class="cls-1" d="M638.46,447a39,39,0,0,0-18.35-4.24,39.37,39.37,0,0,0-21.93,6.2,38.15,38.15,0,0,0-6.43,5.23,2.85,2.85,0,0,1-4.27-.22,25.92,25.92,0,0,0-5.53-5.09,36.41,36.41,0,0,0-21-6.12,37.09,37.09,0,0,0-18.92,4.9,31.41,31.41,0,0,0-2.75,1.77,2.88,2.88,0,0,1-4.59-2.31,2.89,2.89,0,0,0-2.89-2.89h-23.9a2.89,2.89,0,0,0-2.89,2.89v82.78a2.89,2.89,0,0,0,2.89,2.89h25.21a2.89,2.89,0,0,0,2.89-2.89V489.11c0-4.67.67-8.45,2-11.33a14.3,14.3,0,0,1,5.62-6.45,15.45,15.45,0,0,1,8-2.12q6.36,0,9.87,4.33T565,487.32v42.61a2.89,2.89,0,0,0,2.89,2.89h25.2a2.89,2.89,0,0,0,2.9-2.89V489.11a27.82,27.82,0,0,1,1.95-11.33,14.09,14.09,0,0,1,5.47-6.45,15.28,15.28,0,0,1,8.07-2.12,12.07,12.07,0,0,1,9.79,4.33q3.59,4.32,3.58,13.78v42.61a2.89,2.89,0,0,0,2.9,2.89h25.2a2.89,2.89,0,0,0,2.89-2.89V482.26q0-13.69-4.65-22.34A30.32,30.32,0,0,0,638.46,447Z" transform="translate(-80.18 -411.8)"/><path class="cls-1" d="M731.1,448.26a51.25,51.25,0,0,0-23.73-5.47,52.44,52.44,0,0,0-25,5.87,44,44,0,0,0-17.28,16.23,44.85,44.85,0,0,0-6.28,23.73A43.38,43.38,0,0,0,665.21,512a44.74,44.74,0,0,0,18.1,16.31q11.66,6,27.48,5.95,12.57,0,21.86-3.67a41.48,41.48,0,0,0,13.42-8.4,2.93,2.93,0,0,0,.17-4.14l-12.41-13.16a2.87,2.87,0,0,0-3.8-.36,32.28,32.28,0,0,1-7.17,4.21,29.67,29.67,0,0,1-11.25,1.87,26.64,26.64,0,0,1-12.07-2.53,17.86,17.86,0,0,1-7.75-7.26l-.11-.2a2.88,2.88,0,0,1,2.59-4.2h57.25a2.87,2.87,0,0,0,2.88-2.64c0-.41.07-.84.1-1.27.11-1.42.17-2.67.17-3.75q0-14.69-6.45-24.88A43.15,43.15,0,0,0,731.1,448.26Zm-9.22,31.88H693.24a2.91,2.91,0,0,1-2.75-3.85,19.75,19.75,0,0,1,.81-1.94,15.9,15.9,0,0,1,6.45-6.93,19.55,19.55,0,0,1,10-2.45,18.37,18.37,0,0,1,9.62,2.45,17.34,17.34,0,0,1,6.44,6.93,18,18,0,0,1,.85,1.9A2.9,2.9,0,0,1,721.88,480.14Z" transform="translate(-80.18 -411.8)"/><path class="cls-1" d="M834.09,447a40.4,40.4,0,0,0-18.59-4.24,39.75,39.75,0,0,0-19.9,5,33.84,33.84,0,0,0-3.42,2.21,2.87,2.87,0,0,1-4.57-2.33v-.5a2.89,2.89,0,0,0-2.89-2.89h-23.9a2.89,2.89,0,0,0-2.89,2.89v82.78a2.89,2.89,0,0,0,2.89,2.89H786a2.89,2.89,0,0,0,2.89-2.89V490.25q0-7.5,2.28-12.07a15,15,0,0,1,6.36-6.76,18.9,18.9,0,0,1,9.14-2.21,13.16,13.16,0,0,1,10.35,4.33q3.84,4.32,3.83,13.78v42.61a2.89,2.89,0,0,0,2.89,2.89h25.37a2.89,2.89,0,0,0,2.9-2.89V482.26q0-13.69-4.82-22.34A30.83,30.83,0,0,0,834.09,447Z" transform="translate(-80.18 -411.8)"/><path class="cls-1" d="M931.38,452.74q-11.82-9.94-33.35-9.95a82.31,82.31,0,0,0-21,2.77,64.29,64.29,0,0,0-15.65,6.22,2.93,2.93,0,0,0-1.21,3.82l7.69,15.62a2.86,2.86,0,0,0,4,1.23,43.73,43.73,0,0,1,8.6-3.73,42.33,42.33,0,0,1,13-2.12q9.78,0,14.27,4a12.54,12.54,0,0,1,3.79,6.29,2.92,2.92,0,0,1-2.78,3.74H894.6q-13.53,0-22.26,3.18T859.46,493a24.32,24.32,0,0,0-4.16,14.19,25.46,25.46,0,0,0,3.83,13.69,26.12,26.12,0,0,0,11.25,9.79q7.43,3.59,17.86,3.59,11.58,0,18.68-4.65a20.55,20.55,0,0,0,2.65-2,2.88,2.88,0,0,1,4.77,2.19v.15a2.89,2.89,0,0,0,2.89,2.89h23.08a2.89,2.89,0,0,0,2.9-2.89v-46.2Q943.21,462.68,931.38,452.74Zm-19.16,51.15A3.07,3.07,0,0,1,912,505a13.86,13.86,0,0,1-5.77,7.22,17.64,17.64,0,0,1-9.37,2.53q-5.39,0-8.48-2.53a7.93,7.93,0,0,1-3.1-6.44,7.71,7.71,0,0,1,3-6.53q3-2.28,10.52-2.28h10.49a2.89,2.89,0,0,1,2.89,2.89Z" transform="translate(-80.18 -411.8)"/><path class="cls-1" d="M199.5,509.62a12.67,12.67,0,0,0-17.71,4.9,16.13,16.13,0,0,0-1.76,8,16.9,16.9,0,0,0,1.76,8,12.28,12.28,0,0,0,4.65,5,13.32,13.32,0,0,0,13.06,0,12.28,12.28,0,0,0,4.65-5,16.78,16.78,0,0,0,1.76-8,16,16,0,0,0-1.76-8A12.63,12.63,0,0,0,199.5,509.62Z" transform="translate(-80.18 -411.8)"/><path class="cls-1" d="M255,503.64l-26.1-45.21a37.77,37.77,0,0,0-32.7-18.88H144a37.76,37.76,0,0,0-32.7,18.88l-26.1,45.21a37.74,37.74,0,0,0,0,37.76l26.1,45.2A37.74,37.74,0,0,0,144,605.48h52.2a37.75,37.75,0,0,0,32.7-18.88L255,541.4A37.79,37.79,0,0,0,255,503.64ZM161.71,551.9a37.31,37.31,0,0,1-13.94,2.48,39.2,39.2,0,0,1-18.28-4.1A31.15,31.15,0,0,1,117,539a32,32,0,0,1,0-32.89,31.89,31.89,0,0,1,12.5-11.29,38.85,38.85,0,0,1,18.28-4.15,37.6,37.6,0,0,1,13.95,2.47,2.7,2.7,0,0,1,1,4.34,35.65,35.65,0,0,0-4.5,5.83,34.35,34.35,0,0,0-2.32,4.41,2.66,2.66,0,0,1-3.39,1.44,16.42,16.42,0,0,0-4.9-1.22,13.59,13.59,0,0,0-6.76,1.69,12.85,12.85,0,0,0-4.83,4.9,18.58,18.58,0,0,0,0,16,12.46,12.46,0,0,0,4.83,5,13.61,13.61,0,0,0,6.76,1.71,16.36,16.36,0,0,0,4.93-1.24,2.67,2.67,0,0,1,3.4,1.43,33.9,33.9,0,0,0,2.28,4.34,35.49,35.49,0,0,0,4.5,5.81A2.69,2.69,0,0,1,161.71,551.9ZM223.36,539A31.07,31.07,0,0,1,211,550.28a41.41,41.41,0,0,1-35.93,0,33.17,33.17,0,0,1-5.16-3.31A30.19,30.19,0,0,1,159.1,530.4a34.15,34.15,0,0,1-.89-7.83,33.69,33.69,0,0,1,.89-7.84,28.36,28.36,0,0,1,3.61-8.68,29.68,29.68,0,0,1,7.16-8,33.17,33.17,0,0,1,5.16-3.31,41.41,41.41,0,0,1,35.93,0,31.07,31.07,0,0,1,12.4,11.29,32.58,32.58,0,0,1,0,32.94Z" transform="translate(-80.18 -411.8)"/><path class="cls-1" d="M325.57,613.72a29.24,29.24,0,0,1-10.9-2,25.61,25.61,0,0,1-8.52-5.45,24.21,24.21,0,0,1-5.51-8.24,28.64,28.64,0,0,1,0-20.67,24.07,24.07,0,0,1,5.51-8.23,24.32,24.32,0,0,1,8.58-5.37,31.28,31.28,0,0,1,11.07-1.88,30.73,30.73,0,0,1,10.79,1.82,25,25,0,0,1,8.44,5.14,23.47,23.47,0,0,1,5.51,7.87,24.94,24.94,0,0,1,2,9.94,24.41,24.41,0,0,1-1.31,8.46,12.09,12.09,0,0,1-3.75,5.45,9.14,9.14,0,0,1-5.85,1.93A7.43,7.43,0,0,1,336,600.4a8.28,8.28,0,0,1-2.08-6v-3.23l.23-3.3-.51-7.38V574h6.3v19.37a4,4,0,0,0,.88,2.95,2.9,2.9,0,0,0,2.08.86,3.46,3.46,0,0,0,2.61-1.14,7.4,7.4,0,0,0,1.62-3.46,25.63,25.63,0,0,0,.54-5.68,21.17,21.17,0,0,0-1.56-8.3,18.79,18.79,0,0,0-4.46-6.41,19.74,19.74,0,0,0-6.9-4.18,26.29,26.29,0,0,0-8.95-1.45,24.47,24.47,0,0,0-8.94,1.57,19.36,19.36,0,0,0-6.9,4.4,19.89,19.89,0,0,0-4.41,6.7,22.51,22.51,0,0,0-1.56,8.52,23.39,23.39,0,0,0,1.54,8.6,19.62,19.62,0,0,0,4.34,6.79,19.09,19.09,0,0,0,6.82,4.37,24.49,24.49,0,0,0,8.88,1.54,27.47,27.47,0,0,0,5.57-.6,22.46,22.46,0,0,0,5.51-1.9l1.53,4.48a24.59,24.59,0,0,1-6,2A32.52,32.52,0,0,1,325.57,613.72Zm-1.42-11.19a13.13,13.13,0,0,1-11.87-7,15.68,15.68,0,0,1-1.76-7.53,15.44,15.44,0,0,1,1.76-7.49,12.93,12.93,0,0,1,4.86-5.06,13.59,13.59,0,0,1,7-1.82,13,13,0,0,1,6.65,1.65,11,11,0,0,1,4.4,4.88,17.94,17.94,0,0,1,1.56,7.84,18.4,18.4,0,0,1-1.53,7.9,11.24,11.24,0,0,1-4.35,4.94A12.77,12.77,0,0,1,324.15,602.53Zm1.2-5.51a8.65,8.65,0,0,0,4.31-1.08,7.49,7.49,0,0,0,3-3.12,10.19,10.19,0,0,0,1.08-4.83,9.84,9.84,0,0,0-1.08-4.8,7.46,7.46,0,0,0-3-3,8.84,8.84,0,0,0-4.31-1,8.72,8.72,0,0,0-4.4,1.08,7.24,7.24,0,0,0-2.93,3.07,10.16,10.16,0,0,0-1,4.71,10.35,10.35,0,0,0,1,4.74,7.58,7.58,0,0,0,2.93,3.16A8.45,8.45,0,0,0,325.35,597Z" transform="translate(-80.18 -411.8)"/><path class="cls-1" d="M372.66,602.7a29.35,29.35,0,0,1-8.89-1.33,20.26,20.26,0,0,1-6.79-3.44l2.56-5.74a20.66,20.66,0,0,0,5.9,3.13,21.51,21.51,0,0,0,7.22,1.25,15.62,15.62,0,0,0,5-.68,6.07,6.07,0,0,0,2.84-1.85,4.17,4.17,0,0,0,.91-2.64,3.67,3.67,0,0,0-1.31-2.93,9.79,9.79,0,0,0-3.38-1.76c-1.38-.43-2.91-.83-4.6-1.19s-3.37-.8-5.05-1.33a22.34,22.34,0,0,1-4.63-2,9.6,9.6,0,0,1-3.38-3.26,9.76,9.76,0,0,1-1.28-5.23,10.69,10.69,0,0,1,1.74-5.93,11.88,11.88,0,0,1,5.28-4.32,21.69,21.69,0,0,1,9-1.62,28.16,28.16,0,0,1,7.1.91,20.47,20.47,0,0,1,6.13,2.61l-2.33,5.74a21.85,21.85,0,0,0-5.5-2.36,21.07,21.07,0,0,0-5.46-.77,14.09,14.09,0,0,0-4.94.74,6,6,0,0,0-2.81,2,4.5,4.5,0,0,0-.88,2.7,3.67,3.67,0,0,0,1.28,2.92,9.05,9.05,0,0,0,3.35,1.74c1.38.41,2.92.81,4.63,1.19s3.39.82,5.05,1.33a22,22,0,0,1,4.6,2,9.81,9.81,0,0,1,3.38,3.24,9.46,9.46,0,0,1,1.28,5.14,10.72,10.72,0,0,1-1.73,5.88,12,12,0,0,1-5.31,4.31A22,22,0,0,1,372.66,602.7Z" transform="translate(-80.18 -411.8)"/><path class="cls-1" d="M414.68,602.7a23.43,23.43,0,0,1-8.54-1.53,20.27,20.27,0,0,1-6.85-4.32,19.55,19.55,0,0,1-4.48-6.5,21.53,21.53,0,0,1,0-16.24,19.36,19.36,0,0,1,4.48-6.48,20.85,20.85,0,0,1,6.82-4.29,23.36,23.36,0,0,1,8.57-1.53,23.62,23.62,0,0,1,8.52,1.5,20.18,20.18,0,0,1,6.79,4.26,19.52,19.52,0,0,1,4.46,6.51,21.76,21.76,0,0,1,0,16.33A19.74,19.74,0,0,1,423.2,601.2,23.62,23.62,0,0,1,414.68,602.7Zm0-6.47a14.65,14.65,0,0,0,5.54-1,13.17,13.17,0,0,0,4.4-2.9,13.43,13.43,0,0,0,2.93-4.43,14.68,14.68,0,0,0,1.05-5.62,15.08,15.08,0,0,0-1-5.63,12.84,12.84,0,0,0-2.93-4.43,13.32,13.32,0,0,0-4.43-2.89,14.46,14.46,0,0,0-5.54-1,14.9,14.9,0,0,0-5.59,1,12.75,12.75,0,0,0-4.46,2.92,14.61,14.61,0,0,0-2.95,15.59,14,14,0,0,0,2.95,4.46,12.92,12.92,0,0,0,4.46,2.93A15.09,15.09,0,0,0,414.68,596.23Z" transform="translate(-80.18 -411.8)"/><path class="cls-1" d="M462.28,602.7a23.14,23.14,0,0,1-8.46-1.5,20.21,20.21,0,0,1-6.74-4.29,19.89,19.89,0,0,1-4.45-6.48,21.81,21.81,0,0,1,0-16.35,19.77,19.77,0,0,1,4.48-6.48,20.5,20.5,0,0,1,6.76-4.29,23.22,23.22,0,0,1,8.46-1.5,23,23,0,0,1,8.92,1.68,17.59,17.59,0,0,1,6.82,5l-4.77,4.48a15,15,0,0,0-4.89-3.49,14.12,14.12,0,0,0-5.73-1.17,15.19,15.19,0,0,0-5.71,1,13.19,13.19,0,0,0-4.49,2.89,13.56,13.56,0,0,0-3,4.43,15.19,15.19,0,0,0,0,11.25,13.56,13.56,0,0,0,3,4.43,13.36,13.36,0,0,0,4.49,2.9,15.39,15.39,0,0,0,5.71,1,14.12,14.12,0,0,0,5.73-1.17,14.64,14.64,0,0,0,4.89-3.55l4.77,4.49a18,18,0,0,1-6.82,5A22.94,22.94,0,0,1,462.28,602.7Z" transform="translate(-80.18 -411.8)"/><path class="cls-1" d="M485.17,602.13V562.38h7.38v39.75Z" transform="translate(-80.18 -411.8)"/><path class="cls-1" d="M497.6,602.13l17.89-39.75h7.27l18,39.75h-7.78L517.59,566.3h3l-15.39,35.83Zm8.24-9.2,2-5.79h21.41l2,5.79Z" transform="translate(-80.18 -411.8)"/><path class="cls-1" d="M545.71,602.13V562.38h7.38v33.51h20.79v6.24Z" transform="translate(-80.18 -411.8)"/><path class="cls-1" d="M579.73,602.13V562.38h6.07l17.38,29H600l17.1-29h6.07l.12,39.75h-7.1V573.34h1.42l-14.43,24.31h-3.35l-14.76-24.31h1.7v28.79Z" transform="translate(-80.18 -411.8)"/><path class="cls-1" d="M641.35,595.89h22.43v6.24H634V562.38h29v6.24H641.35Zm-.57-17h19.76V585H640.78Z" transform="translate(-80.18 -411.8)"/><path class="cls-1" d="M672.07,602.13V562.38h17.44a24.69,24.69,0,0,1,11.27,2.47,18.41,18.41,0,0,1,7.64,7,21.37,21.37,0,0,1,0,20.9,18.32,18.32,0,0,1-7.64,6.95,24.69,24.69,0,0,1-11.27,2.47Zm7.39-6.24h9.59a16.55,16.55,0,0,0,7.76-1.71,12.64,12.64,0,0,0,5.11-4.77,14.95,14.95,0,0,0,0-14.37,12.85,12.85,0,0,0-5.11-4.71,16.55,16.55,0,0,0-7.76-1.71h-9.59Z" transform="translate(-80.18 -411.8)"/><path class="cls-1" d="M719,602.13V562.38h7.38v39.75Z" transform="translate(-80.18 -411.8)"/><path class="cls-1" d="M731.42,602.13l17.89-39.75h7.27l17.95,39.75h-7.78L751.41,566.3h3L739,602.13Zm8.24-9.2,2-5.79h21.41l2,5.79Z" transform="translate(-80.18 -411.8)"/><path class="cls-1" d="M787.59,602.13V568.62H774.42v-6.24h33.73v6.24H795v33.51Z" transform="translate(-80.18 -411.8)"/><path class="cls-1" d="M821.1,595.89h22.43v6.24H813.72V562.38h29v6.24H821.1Zm-.57-17H840.3V585H820.53Z" transform="translate(-80.18 -411.8)"/><path class="cls-1" d="M846.2,602.13l17.89-39.75h7.27l17.95,39.75h-7.78L866.19,566.3h3l-15.39,35.83Zm8.24-9.2,2-5.79h21.41l2,5.79Z" transform="translate(-80.18 -411.8)"/><path class="cls-1" d="M894.31,602.13V562.38h6.07l17.38,29h-3.18l17.1-29h6.07l.12,39.75h-7.1V573.34h1.42l-14.43,24.31h-3.35l-14.76-24.31h1.7v28.79Z" transform="translate(-80.18 -411.8)"/></svg>